<?xml version="1.0" encoding="UTF-8"?>
<svg id="Layer_2" xmlns="http://www.w3.org/2000/svg" viewBox="0 0 69.42 68.48">
  <defs>
    <style>
      .cls-1 {
        fill: #26d3b2;
      }

      .cls-2 {
        fill: #2c3e50;
      }
    </style>
  </defs>
  <g id="Layer_1-2" data-name="Layer_1">
    <g>
      <g>
        <path class="cls-1" d="M67.94,12.21l-10.3,25.56-3.19,7.92-4.26,10.58h-6.58l2.49-6.57,1.24-3.28,3-7.92,7.21-19.01.51-1.35H23.15l-2.7-5.92h47.49M69.42,11.21H18.89l3.61,7.92h34.11l-7.21,19.01-3,7.92-1.24,3.28-3,7.92h8.7l4.51-11.21,3.19-7.92,10.85-26.93h0Z"/>
        <path class="cls-1" d="M49.05,23.41l-5.78,14.35-3.19,7.92-1.32,3.28-3.19,7.92-4.26,10.58h-6.58l3.73-9.85,3-7.92,1.24-3.28,3-7.92,2.96-7.81.51-1.35H4.26l-2.7-5.92h47.49M50.53,22.41H0l3.61,7.92h34.11l-2.96,7.81-3,7.92-1.24,3.28-3,7.92-4.25,11.21h8.7l4.51-11.21,3.19-7.92,1.32-3.28,3.19-7.92,6.34-15.73h0Z"/>
      </g>
      <g>
        <path class="cls-2" d="M18.56,11.21h8.7l-14.46,38.14h34.11l3.61,7.92H0L18.56,11.21Z"/>
        <path class="cls-2" d="M37.45,0h8.7l-14.46,38.14h34.11l3.61,7.92H18.89L37.45,0Z"/>
      </g>
    </g>
  </g>
</svg>